<svg width="443" height="443" viewBox="0 0 443 443" fill="none" xmlns="http://www.w3.org/2000/svg">
<path fill-rule="evenodd" clip-rule="evenodd" d="M42.0892 120.212C36.3299 114.452 26.6189 116.054 23.0026 123.354C8.37317 152.878 0.136719 186.108 0.136719 221.231C0.136719 256.355 8.37317 289.586 23.0026 319.11C26.6189 326.41 36.3299 328.011 42.0892 322.252C45.717 318.623 46.5705 313.098 44.2946 308.498C31.2668 282.171 23.9348 252.542 23.9348 221.231C23.9348 189.921 31.2668 160.293 44.2946 133.965C46.5705 129.366 45.717 123.841 42.0892 120.212ZM418.734 221.231C418.734 252.542 411.402 282.171 398.375 308.498C396.099 313.098 396.951 318.623 400.579 322.252C406.34 328.012 416.051 326.41 419.667 319.11C434.296 289.586 442.532 256.355 442.532 221.231C442.532 186.108 434.296 152.878 419.667 123.353C416.051 116.054 406.34 114.451 400.58 120.211C396.951 123.84 396.099 129.366 398.375 133.965C411.402 160.293 418.734 189.921 418.734 221.231Z" fill="#9558EC"/>
<mask id="mask0" style="mask-type:alpha" maskUnits="userSpaceOnUse" x="116" y="0" width="210" height="443">
<path d="M116.844 0H325.825V442.395H116.844V0Z" fill="#EC595A"/>
</mask>
<g mask="url(#mask0)">
<path fill-rule="evenodd" clip-rule="evenodd" d="M120.33 41.9589C123.958 45.5885 129.483 46.441 134.082 44.1647C160.405 31.1349 190.03 23.8017 221.336 23.8017C252.641 23.8017 282.265 31.1349 308.588 44.1647C313.188 46.441 318.712 45.5874 322.34 41.9589C328.099 36.1988 326.497 26.4863 319.2 22.8683C289.68 8.23772 256.453 0 221.336 0C186.218 0 152.991 8.23772 123.471 22.8694C116.173 26.4863 114.571 36.1988 120.33 41.9589ZM322.34 400.504C318.712 396.877 313.188 396.023 308.588 398.3C282.265 411.329 252.641 418.663 221.336 418.663C190.03 418.663 160.405 411.329 134.082 398.3C129.483 396.022 123.958 396.877 120.33 400.504C114.571 406.264 116.173 415.977 123.471 419.595C152.991 434.227 186.218 442.464 221.336 442.464C256.453 442.464 289.68 434.228 319.2 419.595C326.497 415.978 328.099 406.266 322.34 400.504Z" fill="#9558EC"/>
</g>
</svg>
