<svg width="21" height="36" viewBox="0 0 21 36" fill="none" xmlns="http://www.w3.org/2000/svg">
<path d="M17.7971 0.760498H3.02126C1.60892 0.760498 0.467773 1.90688 0.467773 3.31791V33.3191C0.467773 34.7288 1.60892 35.8752 3.02126 35.8752H17.7958C19.2082 35.8752 20.3519 34.7288 20.3519 33.3191V3.31791C20.3532 1.90688 19.2108 0.760498 17.7971 0.760498ZM6.76305 2.31434H14.058C14.2427 2.31434 14.3907 2.58947 14.3907 2.93142C14.3907 3.27206 14.2427 3.5485 14.058 3.5485H6.76305C6.57832 3.5485 6.43158 3.27206 6.43158 2.93142C6.43158 2.58947 6.57832 2.31434 6.76305 2.31434ZM10.4105 33.3505C9.51044 33.3505 8.77806 32.6194 8.77806 31.7181C8.77806 30.8167 9.51175 30.0882 10.4105 30.0882C11.3093 30.0882 12.0416 30.818 12.0416 31.7181C12.0416 32.6194 11.308 33.3505 10.4105 33.3505ZM18.4378 27.7588H2.38322V5.07614H18.4378V27.7588Z" fill="white"/>
</svg>
