<svg width="65" height="107" viewBox="0 0 65 107" fill="none" xmlns="http://www.w3.org/2000/svg">
<g clip-path="url(#clip0_1063:142)">
<path d="M54.7861 0.913086C54.0572 0.913086 53.1825 1.06031 52.4535 1.20753C51.5788 1.35475 50.8499 1.79642 50.1209 2.09086C48.6631 2.67975 47.2052 3.56309 45.8932 4.44642C44.4353 5.32975 43.1232 6.21309 41.6654 7.09642C41.228 7.39086 40.6449 7.68531 40.2075 8.12698C38.0207 9.5992 35.8339 11.2186 33.6471 12.6909C33.5014 12.8381 33.2098 12.9853 33.064 13.1325C32.6266 13.5742 32.1893 13.8686 31.6061 14.1631C30.2941 15.1936 28.982 16.2242 27.6699 17.2548C26.7952 17.9909 25.9205 18.5798 25.1916 19.3159C22.7132 21.5242 20.2348 23.7325 17.9023 25.9409C13.2371 30.5048 9.00933 35.5103 5.51047 41.1048C4.92733 42.577 4.1984 44.0492 3.46947 45.5214C2.88633 46.9936 2.1574 48.4659 1.86583 50.0853C1.72004 50.8214 1.57426 51.5575 1.42847 52.2936C1.28268 53.177 1.28268 53.9131 1.28268 54.7964C1.42847 55.827 1.72004 57.0048 2.1574 57.8881C0.991112 60.8325 0.407968 64.0714 0.553754 67.3103C0.553754 68.9297 0.845326 70.5492 1.42847 72.0214C1.86583 73.4936 2.59476 74.8186 3.46947 76.1436C4.34419 77.4686 5.51047 78.4992 6.67676 79.3825C7.84305 80.2659 9.30091 81.002 10.7588 81.5909C13.8203 82.7686 17.0276 83.0631 20.2348 83.0631C21.8385 83.0631 23.5879 82.9159 25.1916 82.6214C26.0663 82.4742 26.7952 82.327 27.6699 82.1798C28.2531 82.6214 28.982 82.9159 29.7109 83.3575C30.4399 83.652 31.1688 83.9464 31.8977 84.0936C32.7724 84.3881 33.5014 84.3881 34.3761 84.5353C37.7292 84.8298 41.0822 84.0936 44.1437 83.0631C45.0184 82.7686 45.8932 82.327 46.7679 82.0325C47.6426 81.5909 48.5173 81.2964 49.392 80.8548C50.4125 80.2659 51.433 79.8242 52.4535 79.2353C52.0162 80.1186 51.5788 81.002 51.1415 82.0325C50.5583 83.5048 50.1209 85.1242 49.8294 86.5964C49.6836 87.3325 49.5378 88.2159 49.5378 88.952C49.5378 89.8353 49.5378 90.7186 49.6836 91.602C49.8294 93.2214 50.4125 94.6936 51.1415 96.1659C51.8704 97.6381 52.8909 98.8159 53.9114 99.9936C55.6608 101.908 57.8476 103.38 59.8886 104.705C61.0549 105.441 62.2212 106.177 63.2417 107.06C63.5332 107.208 63.8248 107.208 63.9706 106.913C64.2622 106.619 64.2622 106.177 63.9706 106.03C63.3875 105.588 62.8043 104.999 62.2212 104.558C61.9296 104.263 61.638 104.116 61.3465 103.821C60.6175 103.233 59.8886 102.644 59.0139 102.055C57.2645 100.73 55.6608 99.2575 54.203 97.4909C53.474 96.4603 52.8909 95.4298 52.3077 94.252C51.8704 93.2214 51.7246 92.3381 51.5788 91.3075C51.433 90.1298 51.433 89.0992 51.5788 87.9214C51.8704 86.1547 52.3077 84.5353 53.0367 82.9159C53.474 81.7381 54.0572 80.7075 54.7861 79.5298C55.3692 78.4992 56.0982 77.4686 56.8271 76.4381C56.9729 76.2909 57.1187 76.1436 57.2645 75.9964C57.4102 75.8492 57.556 75.8492 57.556 75.702C57.7018 75.702 57.7018 75.5548 57.7018 75.5548C57.8476 75.4075 57.8476 75.2603 57.9934 75.2603C57.9934 75.1131 58.1392 74.9659 58.1392 74.9659C58.1392 74.8186 58.1392 74.6714 58.1392 74.5242C58.1392 74.0825 57.8476 73.6409 57.556 73.4936C57.1187 73.1992 56.5355 73.3464 56.0982 73.6409C55.8066 73.9353 55.515 74.2298 55.2235 74.5242C55.0777 74.6714 54.7861 74.9659 54.6403 75.2603C53.6198 75.9964 52.4535 76.7325 51.2872 77.4686C49.392 78.6464 47.2052 79.677 45.1642 80.5603C42.8317 81.4436 40.4991 82.1797 38.0207 82.6214C36.5629 82.7686 34.9592 82.7686 33.5014 82.6214C32.4809 82.4742 31.4604 82.1798 30.4399 81.7381C33.3556 81.002 36.2713 80.1186 39.187 78.9409C42.2485 77.6159 45.1642 76.1436 47.6426 74.0825C50.1209 72.1686 52.4535 69.6659 53.7656 66.7214C54.0572 65.9853 54.3487 65.2492 54.4945 64.3659C54.6403 63.4825 54.6403 62.7464 54.6403 61.8631C54.6403 61.4214 54.4945 61.127 54.3487 60.6853C54.203 60.2436 54.0572 59.9492 53.9114 59.5075C53.6198 58.7714 53.0367 58.1825 52.5993 57.5936C52.3077 57.2992 52.0162 57.0048 51.7246 56.8575C51.433 56.7103 51.1415 56.4159 50.8499 56.2686C50.1209 55.827 49.392 55.5325 48.6631 55.2381C47.9342 54.9436 47.0594 54.9436 46.3305 54.7964C45.6016 54.6492 44.7269 54.6492 43.9979 54.7964C42.3943 54.9436 40.7907 55.2381 39.187 55.827C37.7292 56.2686 36.1255 57.0047 34.8134 57.7409C32.0435 59.3603 29.5651 61.4214 27.5241 63.777C26.5036 64.9548 25.4831 66.2798 24.7542 67.6048C24.3169 68.3409 24.0253 68.9298 23.7337 69.6659C23.4421 70.402 23.1506 71.2853 23.0048 72.1686C22.7132 73.7881 22.859 75.4075 23.2964 77.027C23.7337 78.4992 24.4626 79.677 25.4831 80.8548C25.1916 80.8548 24.9 81.002 24.7542 81.002C23.2964 81.1492 21.8385 81.2964 20.3806 81.2964C18.9228 81.2964 17.3191 81.2964 15.8613 81.1492C14.1118 80.8548 12.3624 80.4131 10.613 79.677C9.73826 78.9409 8.71776 78.2048 7.69726 77.4686C6.82255 76.7325 6.09362 75.9964 5.36469 75.1131C4.78154 74.2298 4.1984 73.1992 3.76104 72.3159C3.32369 71.1381 3.03211 70.1075 2.88633 68.9298C2.74054 67.3103 2.74054 65.6909 2.88633 64.2186C3.03211 62.8936 3.32369 61.5686 3.76104 60.3909C4.34419 60.9798 4.92733 61.5686 5.65626 62.0103C6.82255 62.7464 8.28041 63.3353 9.73826 63.6297C11.1961 63.9242 12.7998 64.0714 14.4034 63.9242C16.0071 63.9242 17.7565 63.6298 19.3601 63.3353C20.9638 63.0409 22.5674 62.5992 24.1711 62.1575C25.7747 61.7159 27.2326 61.127 28.6904 60.3909C31.6061 59.2131 34.5219 57.5936 37.146 55.827C38.4581 54.9436 39.6244 53.9131 40.7907 52.8825C41.9569 51.852 42.9774 50.527 43.8522 49.3492C44.7269 48.0242 45.4558 46.552 45.8932 45.0798C46.1847 44.3436 46.3305 43.4603 46.3305 42.7242C46.4763 41.8409 46.3305 41.1048 46.1847 40.2214C46.0389 39.4853 45.8932 38.7492 45.6016 38.1603C45.31 37.4242 44.8727 36.8353 44.2895 36.2464C43.8522 35.6575 43.269 35.2159 42.6859 34.7742C42.1027 34.3325 41.228 33.8909 40.4991 33.5964C39.0412 33.0075 37.4376 32.7131 35.8339 32.7131C34.2303 32.7131 32.4809 32.8603 30.8772 33.302C29.2736 33.5964 27.6699 34.1853 26.2121 34.7742C24.7542 35.3631 23.1506 36.0992 21.8385 36.9825C19.0686 38.602 16.4444 40.5159 13.9661 42.577C11.6335 44.6381 9.44669 46.9936 7.40569 49.4964C6.38519 50.8214 5.51047 52.1464 4.63576 53.4714C4.05261 54.3548 3.61526 55.2381 3.1779 56.2686C3.1779 55.9742 3.03211 55.6798 3.03211 55.3853C2.88633 54.502 3.03211 53.4714 3.03211 52.5881C3.1779 51.7048 3.32369 50.9686 3.46947 50.2325C3.76104 49.3492 4.05261 48.4659 4.48997 47.5825C5.2189 45.6686 6.2394 43.902 7.2599 42.1353C8.28041 40.3686 9.44669 38.7492 10.7588 37.1298C14.695 31.977 19.3601 27.2659 24.1711 22.8492C24.7542 22.2603 25.3374 21.8186 25.9205 21.2298C26.3579 20.9353 26.7952 20.4936 27.0868 20.1992C27.3784 19.9048 27.6699 19.7575 27.9615 19.4631C29.1278 18.4325 30.4399 17.5492 31.6061 16.5186C32.4809 15.7825 33.5014 15.0464 34.3761 14.3103C36.2713 12.9853 38.1665 11.6603 40.0617 10.3353C41.0822 9.5992 42.1027 8.86309 43.269 8.2742C44.4353 7.53809 45.7474 6.65475 47.0594 5.91864C48.3715 5.18253 49.5378 4.44642 50.8499 4.00475C51.7246 3.71031 52.5993 3.41586 53.474 3.26864C53.9114 3.26864 54.3487 3.12142 54.6403 3.12142C55.2235 3.12142 55.6608 2.67975 55.6608 2.09086C55.8066 1.35475 55.3692 0.913086 54.7861 0.913086C54.9319 0.913086 54.9319 0.913086 54.7861 0.913086ZM34.6676 14.0159C34.6676 14.0159 34.5219 14.0159 34.6676 14.0159C34.5219 14.0159 34.6676 14.0159 34.6676 14.0159ZM37.146 35.0686C38.1665 35.2159 39.0412 35.5103 40.0617 35.8048C40.6449 36.0992 41.228 36.3936 41.6654 36.6881C42.1027 37.1297 42.5401 37.4242 42.8317 37.8659C43.1232 38.3075 43.4148 38.602 43.5606 39.0436C43.8522 39.6325 43.9979 40.2214 43.9979 40.9575C44.1437 41.6936 43.9979 42.4298 43.9979 43.1659C43.8522 44.1964 43.5606 45.227 43.1232 46.2575C42.5401 47.5825 41.8112 48.6131 41.0822 49.7909C39.9159 51.4103 38.4581 52.7353 36.8544 53.9131C37.0002 53.9131 37.0002 53.9131 37.0002 53.9131C34.2303 56.1214 31.1688 57.7409 27.8157 59.2131C24.3169 60.6853 20.5264 61.8631 16.736 62.452C14.8408 62.7464 12.9456 62.7464 11.0503 62.452C10.0298 62.3048 9.00933 62.0103 7.98883 61.7159C7.11412 61.2742 6.2394 60.8325 5.51047 60.2436C5.07312 59.9492 4.63576 59.5075 4.34419 59.0659L4.1984 58.9186C4.1984 58.7714 4.34419 58.7714 4.34419 58.6242C5.51047 55.9742 6.82255 53.6186 8.57198 51.4103C11.0503 48.1714 13.9661 45.227 17.1733 42.7242C19.9433 40.5159 23.0048 38.602 26.3579 37.277C28.5446 36.3936 30.7314 35.6575 33.064 35.3631C34.5219 34.9214 35.8339 34.9214 37.146 35.0686ZM43.9979 43.3131C43.9979 43.4603 43.9979 43.4603 43.9979 43.3131C43.9979 43.4603 43.9979 43.4603 43.9979 43.3131ZM46.7679 57.2992C47.4968 57.4464 48.2257 57.5936 48.9547 57.8881C49.5378 58.1825 50.1209 58.477 50.5583 58.9186C50.8499 59.2131 51.1415 59.5075 51.433 59.802C51.7246 60.2436 52.0162 60.6853 52.162 60.9798C52.3077 61.2742 52.4535 61.7159 52.4535 62.1575C52.4535 62.7464 52.4535 63.3353 52.4535 63.9242C52.3077 64.5131 52.162 65.2492 51.8704 65.8381C51.433 67.0159 50.7041 68.0464 49.9752 68.9298C48.9547 70.2548 47.6426 71.4325 46.3305 72.4631C43.9979 74.2298 41.3738 75.702 38.6039 76.8798C35.2508 78.2048 31.7519 79.3825 28.2531 80.1186C27.6699 79.677 27.0868 79.0881 26.6494 78.4992C26.2121 78.0575 25.9205 77.4686 25.7747 76.8798C25.4831 76.2909 25.3374 75.702 25.1916 74.9659C25.0458 74.2298 25.1916 73.4936 25.1916 72.9048C25.3374 72.1686 25.6289 71.4325 25.7747 70.6964C26.0663 69.9603 26.5036 69.2242 26.941 68.4881C27.3784 67.752 27.8157 67.1631 28.2531 66.427C29.5651 64.6603 31.1688 63.1881 32.9182 61.7159C34.5219 60.3909 36.4171 59.3603 38.3123 58.477C39.7702 57.8881 41.3738 57.4464 43.1232 57.152C44.5811 57.152 45.6016 57.152 46.7679 57.2992ZM33.5014 61.7159C33.3556 61.7159 33.3556 61.7159 33.5014 61.7159C33.3556 61.7159 33.3556 61.7159 33.5014 61.7159ZM46.6221 72.3159L46.4763 72.4631C46.6221 72.4631 46.6221 72.4631 46.6221 72.3159ZM7.69726 77.4686C7.84305 77.6159 7.84305 77.6159 7.69726 77.4686C7.84305 77.6159 7.84305 77.6159 7.69726 77.4686ZM31.023 81.4436C31.023 81.4436 31.023 81.5909 31.023 81.4436C31.023 81.5909 31.023 81.4436 31.023 81.4436ZM33.7929 82.327C33.7929 82.327 33.9387 82.327 33.7929 82.327C33.9387 82.327 33.7929 82.327 33.7929 82.327Z" fill="#171717"/>
</g>
<defs>
<clipPath id="clip0_1063:142">
<rect width="64" height="106" fill="white" transform="translate(0.554443 0.913086)"/>
</clipPath>
</defs>
</svg>
