<svg width="436" height="445" viewBox="0 0 436 445" fill="none" xmlns="http://www.w3.org/2000/svg">
<g clip-path="url(#clip0_1068:464)">
<path d="M127.075 236.658C128.149 236.71 129.491 236.776 130.565 236.828C132.255 235.295 133.944 233.763 135.634 232.23C133.944 233.763 132.255 235.295 130.565 236.828C129.491 236.776 128.29 236.583 127.075 236.658C129.884 239.755 132.694 242.853 135.504 245.95C137.164 247.78 138.952 249.751 140.612 251.582C143.508 258.451 148.442 259.364 153 254.203C157.557 249.043 152.701 246.518 148.356 244.557C148.254 243.88 147.871 243.457 147.206 243.29C147.995 235.389 141.181 234.384 136.478 231.464C134.884 228.291 132.994 225.642 129.415 224.526C128.904 223.963 128.266 223.259 127.755 222.696C117.348 209.809 105.366 198.863 90.0933 191.93C87.7874 184.012 81.1302 179.786 75.0231 175.317C74.7476 169.92 70.9101 171.348 67.8028 171.601C62.9104 167.056 61.1687 169.663 60.511 174.879C58.9331 179.647 63.1638 181.198 65.5903 183.873C86.1451 201.157 106.546 218.837 127.075 236.658ZM72.9505 176.427C74.1492 179.446 75.2202 182.324 76.4189 185.343C75.0794 182.451 73.8807 179.433 72.9505 176.427ZM67.2697 179.783C67.1028 180.448 67.0636 181.254 67.1651 181.932C67.0766 180.985 67.1028 180.448 67.2697 179.783Z" fill="#EFBA34"/>
<path d="M343.711 217.737C332.393 206.958 322.906 194.52 309.746 185.67C307.562 183.545 305.25 181.28 303.066 179.155C295.517 171.117 290.094 160.894 279.422 156.203C271.452 148.548 265.606 138.709 255.639 133.379C252.587 129.732 251.391 123.887 244.741 125.044L244.371 124.353L243.565 124.314C242.543 123.187 241.394 121.92 240.513 120.666C238.132 111.534 231.078 107.154 222.732 104.459C221.192 97.3868 214.224 96.7784 209.535 93.5895C207.364 91.1961 205.193 88.8027 203.035 86.1408C195.942 82.5657 193.639 71.8226 183.512 72.5406C180.78 67.8322 175.181 66.7522 171.297 63.6025C169.729 59.8928 166.867 57.8694 162.98 57.5456C161.794 54.2582 158.265 54.8937 155.9 53.702C152.58 50.0415 150.003 44.937 143.428 47.3082C140.464 44.6071 137.373 41.7651 134.439 46.7359C132.518 50.2757 133.268 54.2147 137.204 56.2904C143.108 59.4038 149.025 62.2488 154.942 65.0937C155.518 64.3144 156.363 63.5481 156.939 62.7687C156.363 63.5481 155.518 64.3144 154.942 65.0937C162.402 72.1855 170.156 78.7532 179.344 83.5069C179.996 83.9423 180.635 84.6463 181.286 85.0817C183.559 88.1529 185.985 90.8279 189.833 91.9572L190.331 92.7889L191.264 92.9689C191.775 93.532 192.413 94.236 193.065 94.6714C199.798 100.113 206.53 105.554 213.276 110.727L213.901 111.7L215.103 111.893C218.538 115.963 221.679 120.556 227.265 121.905C226.692 119.859 226.106 118.081 225.532 116.034C223.499 116.339 222.323 115.609 221.852 114.24C222.323 115.609 223.499 116.339 225.532 116.034C226.927 115.026 228.054 114.004 229.448 112.995C232.926 113.434 235.11 115.559 237.422 117.824C235.11 115.559 232.785 113.561 229.448 112.995C228.054 114.004 226.927 115.026 225.532 116.034C226.106 118.081 226.692 119.859 227.265 121.905C228.938 123.467 230.739 125.169 232.272 126.859C237.367 132.759 242.168 139.183 249.389 142.899C247.741 140.8 246.235 138.573 244.716 136.615C244.041 133.891 244.375 132.562 245.616 131.949C244.375 132.562 243.9 134.019 244.716 136.615C246.363 138.714 247.869 140.941 249.389 142.899C251.701 145.164 253.885 147.289 256.197 149.555C261.79 156.287 267.652 163.031 275.229 167.706L275.599 168.397L276.405 168.437C276.915 169 277.695 169.576 278.206 170.139C286.317 177.666 292.149 187.774 302.245 193.245C303.407 194.243 304.57 195.242 305.732 196.24C315.632 205.738 325.518 215.505 335.276 225.131C337.588 227.397 340.336 229.011 342.768 226.034C345.276 224.272 347.044 221.129 343.711 217.737ZM200.514 88.1711C201.355 90.2307 201.29 91.5732 200.855 92.2248C201.431 91.4455 201.355 90.2307 200.514 88.1711ZM212.25 101.392C212.365 101.801 212.48 102.211 212.594 102.62C212.48 102.211 212.365 101.801 212.25 101.392ZM268.882 148.827C264.425 143.631 259.968 138.435 255.498 133.507C260.096 138.575 264.425 143.631 268.882 148.827C267.615 149.976 266.488 150.998 265.221 152.147C266.488 150.998 267.615 149.976 268.882 148.827Z" fill="#EFBA34"/>
<path d="M340.069 251.067C325.98 261.281 312.147 271.777 298.186 282.132C296.358 280.966 295.271 281.182 295.422 283.612C290.894 285.41 286.735 287.899 283.586 291.782C275.806 296.786 267.899 301.65 260.247 306.794C256.217 309.424 251.253 311.874 250.058 317.064C248.723 322.381 248.026 328.403 256.866 323.72C261.994 323.431 264.849 320.072 267.717 316.443C268.395 316.342 269.086 315.972 269.649 315.461C275.723 315.084 278.286 309.422 282.726 306.678C291.278 296.867 305.102 294.849 314.037 285.46C319.996 284.674 323.045 280.113 326.335 276.101C327.73 275.092 329.252 274.225 330.647 273.216C335.522 269.82 340.398 266.424 345.273 263.028C349.009 260.922 352.362 258.394 354.565 254.599C351.827 244.508 345.93 246.777 340.069 251.067ZM268.185 309.603C269.206 310.729 270.215 312.124 271.237 313.25C270.356 311.996 269.206 310.729 268.185 309.603Z" fill="#EFBA34"/>
<path d="M225.013 242.773C217.687 230.17 209.081 218.986 196.405 211.236C191.166 208.29 191.073 199.135 182.851 199.407C179.344 191.297 172.457 186.251 165.289 181.462C154.679 167.219 139.498 158.405 125.47 148.033C117.428 147.373 116.621 136.299 107.888 136.008C104.398 135.838 100.232 132.944 98.1307 137.417C96.1828 141.494 97.8662 145.613 102.058 147.97C107.297 150.916 112.831 153.339 118.083 156.017C126.411 164.631 135.596 172.211 145.626 179.024C163.434 194.694 178.271 213.314 197.205 227.962C201.534 233.017 205.16 238.711 210.91 242.221C212.095 245.508 215.343 245.128 217.721 246.051C219.355 248.418 221.091 251.464 224.558 249.345C227.321 247.864 226.123 244.846 225.013 242.773ZM127.445 154.454C127.572 154.595 127.968 154.749 128.224 155.03C127.968 154.749 127.7 154.736 127.445 154.454ZM151.199 180.641C150.816 180.219 150.561 179.937 150.037 179.642C150.561 179.937 150.944 180.359 151.199 180.641ZM156.114 176.439C156.651 176.466 157.188 176.492 157.712 176.786C157.188 176.492 156.523 176.325 156.114 176.439ZM190.816 212.714C189.627 212.252 188.438 211.79 187.544 210.805C188.438 211.79 189.627 212.252 190.816 212.714C191.89 212.766 193.091 212.959 194.306 212.884C193.091 212.959 192.017 212.907 190.816 212.714ZM198.724 218.885C196.576 218.781 194.568 218.548 192.42 218.444C194.428 218.676 196.576 218.781 198.724 218.885C205.063 221.347 210.122 225.227 213.646 230.243C209.854 225.214 205.063 221.347 198.724 218.885Z" fill="#EFBA34"/>
<path d="M266.138 227.282C271.579 220.549 265.42 217.154 260.59 214.093C258.89 213.068 257.037 212.44 255.056 211.67C253.012 209.418 250.7 207.152 248.657 204.899C246.856 203.197 244.914 201.622 243.113 199.919C240.392 197.768 238.823 194.059 234.809 193.594C233.542 194.743 232.275 195.893 231.007 197.042C226.521 195.209 222.048 193.107 218.292 190.098C222.048 193.107 226.521 195.209 231.007 197.042C232.275 195.893 233.542 194.743 234.809 193.594C230.709 189.357 226.609 185.121 222.509 180.884C214.81 170.416 205.985 160.97 195.316 153.453C191.612 149.37 187.909 145.287 184.205 141.205C180.478 134.833 176.624 128.321 168.199 127.237C167.969 126.419 167.445 126.124 166.653 125.816C166.142 125.253 165.504 124.549 164.993 123.986C164.482 123.423 163.843 122.719 163.332 122.156C159.619 115.516 153.05 112.235 147.48 107.793C144.988 106.46 142.496 105.128 140.017 103.527C136.887 101.49 133.412 98.2259 130.747 103.21C128.979 106.353 129.435 110.816 133.076 113.416C135.811 115.298 138.853 116.389 141.882 117.747C147.553 122.868 153.366 127.861 159.037 132.981C169.513 141.7 176.289 154.545 188.326 161.591C188.038 167.498 192.128 169.177 196.935 169.949C209.474 186.036 224.573 199.286 239.519 212.932C243.671 216.095 247.555 219.245 251.707 222.407C252.218 222.97 252.856 223.674 253.367 224.238C257.123 227.246 260.978 233.759 266.138 227.282ZM173.295 144.172C168.734 141.124 168.677 133.989 162.554 132.614C168.677 133.989 168.734 141.124 173.295 144.172ZM180.047 143.694C180.443 143.847 180.967 144.142 181.209 144.692C180.967 144.142 180.443 143.847 180.047 143.694ZM199.299 171.141C200.092 171.449 200.871 172.025 201.523 172.461C200.743 171.884 200.092 171.449 199.299 171.141ZM203.848 174.458C206.67 177.287 208.904 181.163 212.149 183.609C208.904 181.163 206.798 177.427 203.848 174.458ZM202.557 173.318C202.941 173.741 203.465 174.035 203.848 174.458C203.465 174.035 203.081 173.613 202.557 173.318ZM217.345 179.152C209.768 174.477 204.865 167.375 200.091 160.414C204.865 167.375 209.768 174.477 217.345 179.152ZM242.741 213.089C244.81 214.805 247.597 215.613 249.526 217.457C247.597 215.613 244.683 214.664 242.741 213.089ZM249.526 217.457C250.164 218.161 250.675 218.724 251.032 219.683C250.803 218.864 250.164 218.161 249.526 217.457Z" fill="#EFBA34"/>
<path d="M431.967 273.44C428.073 267.733 422.307 267.318 417.314 273.13C416.456 274.165 415.484 274.79 414.498 275.684C391.843 284.943 370.286 296.543 348.473 307.861C343.741 308.303 339.737 310.396 336.23 313.32C334.976 314.201 333.722 315.082 332.34 315.822C328.542 316.445 324.004 315.685 322.809 320.875C321.735 320.823 320.52 320.898 319.574 320.987C313.067 319.19 309.329 324.121 304.863 327.403C296.896 327.957 298.105 333.533 300.184 337.806C303.119 343.87 307.585 340.589 311.334 338.214C315.682 337.349 319.303 334.834 322.401 332.025C332.302 327.662 342.344 323.172 352.118 318.669C356.489 320.093 358.64 317.372 360.804 314.382C365.755 312.201 370.565 310.148 375.516 307.967C379.124 305.72 382.745 303.205 386.353 300.958C397.313 299.743 406.359 293.589 415.495 288.382C419.024 287.747 422.439 286.702 425.127 284.007C428.379 280.801 436.614 280.26 431.967 273.44ZM394.254 290.712C394.525 287.899 395.524 286.737 397.033 286.138C395.524 286.737 394.525 287.899 394.254 290.712C392.423 292.372 390.593 294.033 388.622 295.821C390.452 294.16 392.283 292.5 394.254 290.712Z" fill="#EFBA34"/>
<path d="M120.254 277.235C118.761 274.74 116.282 273.139 113.06 272.982C110.931 266.957 105.718 263.474 100.774 260.003C95.0134 253.936 89.3941 247.742 83.6339 241.675C78.096 231.043 69.0645 223.068 61.5687 213.956C57.9435 208.262 54.3182 202.568 46.1847 203.787C40.687 203.384 38.4474 205.159 41.5487 210.558C42.4558 211.275 43.3629 211.993 44.27 212.71C43.3629 211.993 42.4558 211.275 41.5487 210.558C56.4097 231.468 74.2141 249.963 92.8764 267.424C97.4218 273.566 101.532 280.36 108.611 284.204L109.237 285.176L110.157 285.625C114.895 290.565 120.525 299.317 126.86 293.57C134.859 286.828 123.215 282.762 120.254 277.235ZM60.2885 215.374C62.3651 222.472 68.1906 227.197 72.0844 232.904C68.3314 227.069 62.3651 222.472 60.2885 215.374ZM73.1623 241.165C70.0711 238.323 66.9798 235.481 63.8885 232.639C66.9798 235.481 70.2118 238.195 73.1623 241.165C74.7049 245.412 77.0923 248.892 79.902 251.989C77.0923 248.892 74.7049 245.412 73.1623 241.165ZM95.3975 265.394C90.6068 261.527 85.4067 257.775 81.1791 253.397C85.4067 257.775 90.479 261.386 95.3975 265.394C96.6385 264.781 98.2625 264.591 99.3627 264.106C98.1218 264.719 96.4977 264.909 95.3975 265.394Z" fill="#EFBA34"/>
<path d="M219.25 286.496C223.202 285.478 228.893 284.678 225.536 278.998C223.431 275.262 217.975 271.228 214.007 275.341C206.787 282.66 195.494 285.205 190.446 294.917C181.661 295.701 178.047 303.599 172.032 308.285C167.199 308.05 166.823 313.01 164.416 315.45C162.151 317.762 157.966 320.788 161.683 324.602C164.761 327.713 168.484 325.875 171.326 322.784C183.326 316.775 193.04 307.962 202.372 298.728C209.467 299.477 211.418 292.574 215.884 289.293C216.87 288.399 217.996 287.377 219.25 286.496Z" fill="#EFBA34"/>
</g>
<defs>
<clipPath id="clip0_1068:464">
<rect width="372.945" height="249.01" fill="white" transform="translate(184.727 0.605347) rotate(47.7879)"/>
</clipPath>
</defs>
</svg>
